<svg width="21" height="24" fill="none" xmlns="http://www.w3.org/2000/svg"><path fill-rule="evenodd" clip-rule="evenodd" d="M17.25 7.912c0-1.051.86-1.932 1.912-1.912A1.875 1.875 0 0 1 21 7.875v5.753l-.131 2.828c-.031.177-.067.353-.108.529l-.146.62-3.6-2.307-.208 4.485-.016.008-3.78-2.423-.207 4.458-3.757-2.409-.208 4.485-.054.028-3.588-2.3-4.838-6.652a1.875 1.875 0 0 1 3.033-2.206l1.483 2.04V3.75c0-1.023.82-1.855 1.838-1.875 1.052-.02 1.912.86 1.912 1.912V12H9V1.875C9 .852 9.82.02 10.838 0c1.052-.02 1.912.86 1.912 1.912V12h.375V3.703c0-1.023.82-1.855 1.838-1.875 1.052-.02 1.912.86 1.912 1.912V12h.375V7.912z" fill="#514175"/></svg>